<svg xmlns="http://www.w3.org/2000/svg" version="1.1" xmlnsXlink="http://www.w3.org/1999/xlink" xmlnssvgjs="http://svgjs.dev/svgjs" width="100" height="100" viewBox="0 0 2000 1247"><g transform="matrix(1,0,0,1,-1.2121212121212466,0.504858299595071)"><svg viewBox="0 0 396 247" data-background-color="#ffffff" preserveAspectRatio="xMidYMid meet" height="1247" width="2000" xmlns="http://www.w3.org/2000/svg" xmlnsXlink="http://www.w3.org/1999/xlink"><g id="tight-bounds" transform="matrix(1,0,0,1,0.2400000000000091,-0.09999999999999432)"><svg viewBox="0 0 395.52 247.2" height="247.2" width="395.52"><rect width="395.52" height="247.2" fill="url(#3b425ca0-e3b8-447d-b725-5d548ac6e648)" mask="url(&quot;#1e874b73-d94a-4f05-92e3-98644309ac23&quot;)" data-fill-palette-color="accent"></rect><rect width="395.52" height="247.2" fill="url(#f9e56389-7403-45e8-8cf0-64333d1b1a2d)" mask="url(&quot;#fe566038-deb8-4b12-bcf3-72a612224372&quot;)" data-fill-palette-color="primary"></rect><g><svg></svg></g><g><svg viewBox="0 0 395.52 247.2" height="247.2" width="395.52"><g transform="matrix(1,0,0,1,39.55199999999999,63.44693677419354)"><svg viewBox="0 0 316.416 120.30612645161291" height="120.30612645161291" width="316.416"><g><svg viewBox="0 0 316.416 120.30612645161291" height="120.30612645161291" width="316.416"><g><svg viewBox="0 0 316.416 120.30612645161291" height="120.30612645161291" width="316.416"><g><svg viewBox="0 0 316.416 120.30612645161291" height="120.30612645161291" width="316.416"><g id="textblocktransform"><svg viewBox="0 0 316.416 120.30612645161291" height="120.30612645161291" width="316.416" id="textblock"><g><svg viewBox="0 0 316.416 120.30612645161291" height="120.30612645161291" width="316.416"><g transform="matrix(1,0,0,1,0,0)"><svg width="316.416" viewBox="-3.85 -37.2 117.24 45.2" height="120.30612645161291" data-palette-color="url(#f9e56389-7403-45e8-8cf0-64333d1b1a2d)"></svg></g></svg></g></svg></g></svg></g></svg></g></svg></g></svg></g><g mask="url(&quot;#10a413b7-33ca-45af-ade6-5166e10550b0&quot;)"><g transform="matrix(2.7244445020956034, 0, 0, 2.7244445020956034, 86.05696265187194, 1)"><svg xmlns="http://www.w3.org/2000/svg" xmlnsXlink="http://www.w3.org/1999/xlink" version="1.1" x="0" y="0" viewBox="9.000121550667213 5.000001904463208 82.0005966443491 89.9999980955368" enable-background="new 0 0 100 100" xml:space="preserve" height="89.9999980955368" width="82.0005966443491" class="icon-none" data-fill-palette-color="accent" id="none"></svg></g></g><mask id="10a413b7-33ca-45af-ade6-5166e10550b0"><rect width="640" height="400" fill="white"></rect><g transform="matrix(1,0,0,1,39.55199999999999,63.44693677419354)"><svg viewBox="0 0 316.416 120.30612645161291" height="120.30612645161291" width="316.416"><g><svg viewBox="0 0 316.416 120.30612645161291" height="120.30612645161291" width="316.416"><g><svg viewBox="0 0 316.416 120.30612645161291" height="120.30612645161291" width="316.416"><g><svg viewBox="0 0 316.416 120.30612645161291" height="120.30612645161291" width="316.416"><g id="SvgjsG1047"><svg viewBox="0 0 316.416 120.30612645161291" height="120.30612645161291" width="316.416" id="SvgjsSvg1046"><g><svg viewBox="0 0 316.416 120.30612645161291" height="120.30612645161291" width="316.416"><g transform="matrix(1,0,0,1,0,0)"><svg width="316.416" viewBox="-3.85 -37.2 117.24 45.2" height="120.30612645161291" data-palette-color="url(#f9e56389-7403-45e8-8cf0-64333d1b1a2d)"><path d="M25.2-20.35L25.2-20.35Q30.1-20.35 30.1-18.5L30.1-18.5Q30.1-18.1 29.8-17.6L29.8-17.6Q28.6-15.75 25.45-15.75L25.45-15.75Q23.4-15.75 21.25-16.48 19.1-17.2 18-18L18-18Q13.35-16.65 9.73-13.85 6.1-11.05 4.3-7.5L4.3-7.5Q3.35-5.6 3.35-3.8L3.35-3.8Q3.35-1 5.68 0.75 8 2.5 12.5 2.5L12.5 2.5Q13.75 2.5 15.1 2.35L15.1 2.35Q23.05 1.5 27.75-2.75L27.75-2.75Q31.7-6.25 31.7-10.1L31.7-10.1Q31.7-13.15 28.75-13.15L28.75-13.15Q25.2-13.15 20.6-9.35L20.6-9.35Q19.45-8.4 18.65-6.95 17.85-5.5 17.85-4.1 17.85-2.7 19.25-2.35L19.25-2.35Q19.75-2.15 19.75-1.85L19.75-1.85Q19.75-1.35 18.75-1.45L18.75-1.45Q16.35-1.5 16.35-4.6 16.35-7.7 19.5-10.4L19.5-10.4Q23.8-14.1 28.6-14.1L28.6-14.1Q32.2-14.1 33.15-11.85L33.15-11.85Q33.55-10.8 33.55-9.75L33.55-9.75Q33.55-5.1 28.4-1L28.4-1Q22.25 4 12.8 4L12.8 4Q6.95 4 3.55 1.83 0.15-0.35 0.15-3.85L0.15-3.85Q0.15-5.9 1.45-7.95L1.45-7.95Q6.05-15.25 17.15-18.8L17.15-18.8Q15.5-20.7 15.5-22.85 15.5-25 16.55-26.45L16.55-26.45Q18.6-29.25 22.7-31.05L22.7-31.05Q27.6-33.2 32.5-33.2L32.5-33.2Q35.35-33.2 37.08-32.27 38.8-31.35 38.8-29.43 38.8-27.5 37.38-26.18 35.95-24.85 34.4-24.85 32.85-24.85 32.85-25.6L32.85-25.6Q32.85-26.05 33.5-26.05L33.5-26.05 34.5-25.9Q35.5-25.9 36.33-26.98 37.15-28.05 37.15-29.2L37.15-29.2Q37.15-30.9 35.2-31.7L35.2-31.7Q33.95-32.2 32.85-32.2 31.75-32.2 31.3-32.15L31.3-32.15Q27-31.9 22.9-29.15L22.9-29.15Q18.1-26 18.1-22.05L18.1-22.05Q18.1-20.6 19.1-19.35L19.1-19.35Q22.3-20.35 25.2-20.35ZM19.95-18.55L19.95-18.55Q22.1-16.85 24.9-16.85 27.7-16.85 27.7-18.4L27.7-18.4Q27.7-19.1 25.2-19.1 22.7-19.1 19.95-18.55ZM38.35 0.65L38.35 0.65Q37.8 0.65 37.35 0.5L37.35 0.5Q34.15-0.4 34.15-3.1L34.15-3.1Q34.15-6.6 38.55-11.2 42.95-15.8 46.45-15.8L46.45-15.8Q47.6-15.8 48.32-15.18 49.05-14.55 49.05-13.48 49.05-12.4 48.4-11.23 47.75-10.05 46.45-10.05 45.15-10.05 45.15-10.85L45.15-10.85Q45.15-11.4 45.82-12.53 46.5-13.65 46.5-13.73 46.5-13.8 46.35-13.8L46.35-13.8Q44.95-13.65 42.52-11.8 40.1-9.95 39.2-8.7L39.2-8.7 37.25-5.85Q36.75-5.05 36.52-3.95 36.3-2.85 36.3-2.3 36.3-1.75 36.92-1.05 37.55-0.35 38.7-0.35L38.7-0.35Q41.2-0.35 44.9-3.28 48.6-6.2 50.6-8.85L50.6-8.85Q50.85-9.15 51.2-9.15 51.55-9.15 51.55-8.95 51.55-8.75 51.3-8.45L51.3-8.45Q48.55-4.8 44.72-2.08 40.9 0.65 38.35 0.65ZM65.3-14.95L65.3-14.95 66-15.1Q66.55-15.1 67.05-14.65 67.55-14.2 67.55-13.95 67.55-13.7 64.45-9.13 61.35-4.55 61.35-2.75L61.35-2.75Q61.35-2.6 61.4-2.45L61.4-2.45Q61.65-1.3 62.5-1.3L62.5-1.3Q65.1-1.3 72-9.9L72-9.9Q72.15-10.1 72.35-10.1 72.55-10.1 72.55-9.73 72.55-9.35 72.1-8.75L72.1-8.75Q65.7-0.2 62.35-0.2L62.35-0.2Q61.9-0.2 61.5-0.35L61.5-0.35Q59.3-1.2 59.3-3.65L59.3-3.65Q59.3-4.5 59.5-5.35L59.5-5.35 56.4-2.35Q53.45 0.25 52.12 0.25 50.8 0.25 49.6-0.6L49.6-0.6Q48.25-1.6 48.25-3.25L48.25-3.25Q48.25-6.9 53.35-11.98 58.45-17.05 62.7-17.05L62.7-17.05Q64.35-17.05 64.9-15.9L64.9-15.9Q65.05-15.5 65.15-15.23 65.25-14.95 65.3-14.95ZM50.35-2.65L50.35-2.65Q50.35-0.85 51.6-0.85L51.6-0.85Q54.5-0.85 59.5-7.2L59.5-7.2 64.8-14.5Q64.4-15.2 63.5-15.2L63.5-15.2Q60.45-15.2 55.4-10.48 50.35-5.75 50.35-2.65ZM79.49 0.25L79.49 0.25Q75.74 0.25 75.74-3.9L75.74-3.9Q75.74-6 76.84-8.5 77.94-11 79.24-12.7L79.24-12.7Q78.99-12.65 78.59-12.65L78.59-12.65Q77.39-12.65 76.59-14.35L76.59-14.35 72.89-9.55Q69.79-5.7 69.29-5.7L69.29-5.7Q69.04-5.7 69.04-5.9L69.04-5.9Q69.04-6.4 69.89-7.35L69.89-7.35Q74.24-12.4 76.04-15.9L76.04-15.9Q77.19-20.25 78.94-20.25L78.94-20.25Q80.09-20.25 80.09-19.25 80.09-18.25 78.84-16.7L78.84-16.7 77.64-15.1Q77.64-14.05 79.19-14.05L79.19-14.05Q80.09-14.05 81.19-14.7L81.19-14.7 82.49-15.5Q82.59-15.55 82.99-15.55 83.39-15.55 83.84-15.05 84.29-14.55 84.14-14.15L84.14-14.15 80.69-9.8Q77.49-5.7 77.49-3.33 77.49-0.95 79.69-0.95L79.69-0.95Q81.99-0.95 85.34-3.4L85.34-3.4Q87.34-4.85 88.99-6.65L88.99-6.65Q90.54-8.45 90.69-8.45L90.69-8.45Q91.04-8.45 91.04-8.08 91.04-7.7 90.59-7.2L90.59-7.2 88.99-5.4Q87.64-4 85.99-2.7L85.99-2.7Q82.04 0.25 79.49 0.25ZM102.04-16.1L102.04-16.1 109.24-16.2Q109.39-16.1 109.39-16.05L109.39-16.05Q109.39-15.6 103.17-14.8 96.94-14 96.44-13.85L96.44-13.85Q95.49-13 92.94-8.78 90.39-4.55 90.39-2.6L90.39-2.6Q90.39-0.75 92.94-0.75L92.94-0.75Q94.14-0.75 96.09-1.5 98.04-2.25 99.09-2.9L99.09-2.9Q101.89-4.65 105.09-8.05L105.09-8.05Q105.79-8.75 106.04-8.75L106.04-8.75Q106.19-8.75 106.19-8.45 106.19-8.15 105.44-7.25L105.44-7.25Q102.84-4.05 99.59-2.1L99.59-2.1Q95.69 0.3 92.14 0.3L92.14 0.3Q90.59 0.3 89.62-0.38 88.64-1.05 88.64-3.1 88.64-5.15 90.44-8.72 92.24-12.3 93.19-14.05L93.19-14.05Q92.49-13.9 91.99-13.9L91.99-13.9Q90.54-13.9 90.54-15.05L90.54-15.05Q90.54-15.9 91.74-16.25L91.74-16.25Q91.89-16.25 92.19-16.3L92.19-16.3 95.09-16.3Q95.99-17.45 97.14-18.95L97.14-18.95Q98.54-20.75 99.04-20.75 99.54-20.75 100.29-20.35 101.04-19.95 101.04-19.4 101.04-18.85 98.64-16.15L98.64-16.15Q99.94-16.1 102.04-16.1Z" opacity="1" transform="matrix(1,0,0,1,0,0)" fill="black" class="undefined-text-0" data-fill-palette-color="primary" id="SvgjsPath1045" stroke-width="7" stroke="black" stroke-linejoin="round"></path></svg></g></svg></g></svg></g></svg></g></svg></g></svg></g></svg></g></mask></svg></g><defs></defs><mask id="fe566038-deb8-4b12-bcf3-72a612224372"><g id="SvgjsG1056"><svg viewBox="0 0 395.52 247.2" height="247.2" width="395.52"><g><svg></svg></g><g><svg viewBox="0 0 395.52 247.2" height="247.2" width="395.52"><g transform="matrix(1,0,0,1,39.55199999999999,63.44693677419354)"><svg viewBox="0 0 316.416 120.30612645161291" height="120.30612645161291" width="316.416"><g><svg viewBox="0 0 316.416 120.30612645161291" height="120.30612645161291" width="316.416"><g><svg viewBox="0 0 316.416 120.30612645161291" height="120.30612645161291" width="316.416"><g><svg viewBox="0 0 316.416 120.30612645161291" height="120.30612645161291" width="316.416"><g id="SvgjsG1055"><svg viewBox="0 0 316.416 120.30612645161291" height="120.30612645161291" width="316.416" id="SvgjsSvg1054"><g><svg viewBox="0 0 316.416 120.30612645161291" height="120.30612645161291" width="316.416"><g transform="matrix(1,0,0,1,0,0)"><svg width="316.416" viewBox="-3.85 -37.2 117.24 45.2" height="120.30612645161291" data-palette-color="url(#f9e56389-7403-45e8-8cf0-64333d1b1a2d)"><path d="M25.2-20.35L25.2-20.35Q30.1-20.35 30.1-18.5L30.1-18.5Q30.1-18.1 29.8-17.6L29.8-17.6Q28.6-15.75 25.45-15.75L25.45-15.75Q23.4-15.75 21.25-16.48 19.1-17.2 18-18L18-18Q13.35-16.65 9.73-13.85 6.1-11.05 4.3-7.5L4.3-7.5Q3.35-5.6 3.35-3.8L3.35-3.8Q3.35-1 5.68 0.75 8 2.5 12.5 2.5L12.5 2.5Q13.75 2.5 15.1 2.35L15.1 2.35Q23.05 1.5 27.75-2.75L27.75-2.75Q31.7-6.25 31.7-10.1L31.7-10.1Q31.7-13.15 28.75-13.15L28.75-13.15Q25.2-13.15 20.6-9.35L20.6-9.35Q19.45-8.4 18.65-6.95 17.85-5.5 17.85-4.1 17.85-2.7 19.25-2.35L19.25-2.35Q19.75-2.15 19.75-1.85L19.75-1.85Q19.75-1.35 18.75-1.45L18.75-1.45Q16.35-1.5 16.35-4.6 16.35-7.7 19.5-10.4L19.5-10.4Q23.8-14.1 28.6-14.1L28.6-14.1Q32.2-14.1 33.15-11.85L33.15-11.85Q33.55-10.8 33.55-9.75L33.55-9.75Q33.55-5.1 28.4-1L28.4-1Q22.25 4 12.8 4L12.8 4Q6.95 4 3.55 1.83 0.15-0.35 0.15-3.85L0.15-3.85Q0.15-5.9 1.45-7.95L1.45-7.95Q6.05-15.25 17.15-18.8L17.15-18.8Q15.5-20.7 15.5-22.85 15.5-25 16.55-26.45L16.55-26.45Q18.6-29.25 22.7-31.05L22.7-31.05Q27.6-33.2 32.5-33.2L32.5-33.2Q35.35-33.2 37.08-32.27 38.8-31.35 38.8-29.43 38.8-27.5 37.38-26.18 35.95-24.85 34.4-24.85 32.85-24.85 32.85-25.6L32.85-25.6Q32.85-26.05 33.5-26.05L33.5-26.05 34.5-25.9Q35.5-25.9 36.33-26.98 37.15-28.05 37.15-29.2L37.15-29.2Q37.15-30.9 35.2-31.7L35.2-31.7Q33.95-32.2 32.85-32.2 31.75-32.2 31.3-32.15L31.3-32.15Q27-31.9 22.9-29.15L22.9-29.15Q18.1-26 18.1-22.05L18.1-22.05Q18.1-20.6 19.1-19.35L19.1-19.35Q22.3-20.35 25.2-20.35ZM19.95-18.55L19.95-18.55Q22.1-16.85 24.9-16.85 27.7-16.85 27.7-18.4L27.7-18.4Q27.7-19.1 25.2-19.1 22.7-19.1 19.95-18.55ZM38.35 0.65L38.35 0.65Q37.8 0.65 37.35 0.5L37.35 0.5Q34.15-0.4 34.15-3.1L34.15-3.1Q34.15-6.6 38.55-11.2 42.95-15.8 46.45-15.8L46.45-15.8Q47.6-15.8 48.32-15.18 49.05-14.55 49.05-13.48 49.05-12.4 48.4-11.23 47.75-10.05 46.45-10.05 45.15-10.05 45.15-10.85L45.15-10.85Q45.15-11.4 45.82-12.53 46.5-13.65 46.5-13.73 46.5-13.8 46.35-13.8L46.35-13.8Q44.95-13.65 42.52-11.8 40.1-9.95 39.2-8.7L39.2-8.7 37.25-5.85Q36.75-5.05 36.52-3.95 36.3-2.85 36.3-2.3 36.3-1.75 36.92-1.05 37.55-0.35 38.7-0.35L38.7-0.35Q41.2-0.35 44.9-3.28 48.6-6.2 50.6-8.85L50.6-8.85Q50.85-9.15 51.2-9.15 51.55-9.15 51.55-8.95 51.55-8.75 51.3-8.45L51.3-8.45Q48.55-4.8 44.72-2.08 40.9 0.65 38.35 0.65ZM65.3-14.95L65.3-14.95 66-15.1Q66.55-15.1 67.05-14.65 67.55-14.2 67.55-13.95 67.55-13.7 64.45-9.13 61.35-4.55 61.35-2.75L61.35-2.75Q61.35-2.6 61.4-2.45L61.4-2.45Q61.65-1.3 62.5-1.3L62.5-1.3Q65.1-1.3 72-9.9L72-9.9Q72.15-10.1 72.35-10.1 72.55-10.1 72.55-9.73 72.55-9.35 72.1-8.75L72.1-8.75Q65.7-0.2 62.35-0.2L62.35-0.2Q61.9-0.2 61.5-0.35L61.5-0.35Q59.3-1.2 59.3-3.65L59.3-3.65Q59.3-4.5 59.5-5.35L59.5-5.35 56.4-2.35Q53.45 0.25 52.12 0.25 50.8 0.25 49.6-0.6L49.6-0.6Q48.25-1.6 48.25-3.25L48.25-3.25Q48.25-6.9 53.35-11.98 58.45-17.05 62.7-17.05L62.7-17.05Q64.35-17.05 64.9-15.9L64.9-15.9Q65.05-15.5 65.15-15.23 65.25-14.95 65.3-14.95ZM50.35-2.65L50.35-2.65Q50.35-0.85 51.6-0.85L51.6-0.85Q54.5-0.85 59.5-7.2L59.5-7.2 64.8-14.5Q64.4-15.2 63.5-15.2L63.5-15.2Q60.45-15.2 55.4-10.48 50.35-5.75 50.35-2.65ZM79.49 0.25L79.49 0.25Q75.74 0.25 75.74-3.9L75.74-3.9Q75.74-6 76.84-8.5 77.94-11 79.24-12.7L79.24-12.7Q78.99-12.65 78.59-12.65L78.59-12.65Q77.39-12.65 76.59-14.35L76.59-14.35 72.89-9.55Q69.79-5.7 69.29-5.7L69.29-5.7Q69.04-5.7 69.04-5.9L69.04-5.9Q69.04-6.4 69.89-7.35L69.89-7.35Q74.24-12.4 76.04-15.9L76.04-15.9Q77.19-20.25 78.94-20.25L78.94-20.25Q80.09-20.25 80.09-19.25 80.09-18.25 78.84-16.7L78.84-16.7 77.64-15.1Q77.64-14.05 79.19-14.05L79.19-14.05Q80.09-14.05 81.19-14.7L81.19-14.7 82.49-15.5Q82.59-15.55 82.99-15.55 83.39-15.55 83.84-15.05 84.29-14.55 84.14-14.15L84.14-14.15 80.69-9.8Q77.49-5.7 77.49-3.33 77.49-0.95 79.69-0.95L79.69-0.95Q81.99-0.95 85.34-3.4L85.34-3.4Q87.34-4.85 88.99-6.65L88.99-6.65Q90.54-8.45 90.69-8.45L90.69-8.45Q91.04-8.45 91.04-8.08 91.04-7.7 90.59-7.2L90.59-7.2 88.99-5.4Q87.64-4 85.99-2.7L85.99-2.7Q82.04 0.25 79.49 0.25ZM102.04-16.1L102.04-16.1 109.24-16.2Q109.39-16.1 109.39-16.05L109.39-16.05Q109.39-15.6 103.17-14.8 96.94-14 96.44-13.85L96.44-13.85Q95.49-13 92.94-8.78 90.39-4.55 90.39-2.6L90.39-2.6Q90.39-0.75 92.94-0.75L92.94-0.75Q94.14-0.75 96.09-1.5 98.04-2.25 99.09-2.9L99.09-2.9Q101.89-4.65 105.09-8.05L105.09-8.05Q105.79-8.75 106.04-8.75L106.04-8.75Q106.19-8.75 106.19-8.45 106.19-8.15 105.44-7.25L105.44-7.25Q102.84-4.05 99.59-2.1L99.59-2.1Q95.69 0.3 92.14 0.3L92.14 0.3Q90.59 0.3 89.62-0.38 88.64-1.05 88.64-3.1 88.64-5.15 90.44-8.72 92.24-12.3 93.19-14.05L93.19-14.05Q92.49-13.9 91.99-13.9L91.99-13.9Q90.54-13.9 90.54-15.05L90.54-15.05Q90.54-15.9 91.74-16.25L91.74-16.25Q91.89-16.25 92.19-16.3L92.19-16.3 95.09-16.3Q95.99-17.45 97.14-18.95L97.14-18.95Q98.54-20.75 99.04-20.75 99.54-20.75 100.29-20.35 101.04-19.95 101.04-19.4 101.04-18.85 98.64-16.15L98.64-16.15Q99.94-16.1 102.04-16.1Z" opacity="1" transform="matrix(1,0,0,1,0,0)" fill="white" class="undefined-text-0" id="SvgjsPath1053"></path></svg></g></svg></g></svg></g></svg></g></svg></g></svg></g></svg></g><g mask="url(&quot;#10a413b7-33ca-45af-ade6-5166e10550b0&quot;)"><g transform="matrix(2.7244445020956034, 0, 0, 2.7244445020956034, 86.05696265187194, 1)"><svg xmlns="http://www.w3.org/2000/svg" xmlnsXlink="http://www.w3.org/1999/xlink" version="1.1" x="0" y="0" viewBox="9.000121550667213 5.000001904463208 82.0005966443491 89.9999980955368" enable-background="new 0 0 100 100" xml:space="preserve" height="89.9999980955368" width="82.0005966443491" class="icon-none" data-fill-palette-color="accent" id="SvgjsSvg1052"></svg></g></g><mask id="SvgjsMask1051"><g transform="matrix(1,0,0,1,39.55199999999999,63.44693677419354)"><svg viewBox="0 0 316.416 120.30612645161291" height="120.30612645161291" width="316.416"><g><svg viewBox="0 0 316.416 120.30612645161291" height="120.30612645161291" width="316.416"><g><svg viewBox="0 0 316.416 120.30612645161291" height="120.30612645161291" width="316.416"><g><svg viewBox="0 0 316.416 120.30612645161291" height="120.30612645161291" width="316.416"><g id="SvgjsG1050"><svg viewBox="0 0 316.416 120.30612645161291" height="120.30612645161291" width="316.416" id="SvgjsSvg1049"><g><svg viewBox="0 0 316.416 120.30612645161291" height="120.30612645161291" width="316.416"><g transform="matrix(1,0,0,1,0,0)"><svg width="316.416" viewBox="-3.85 -37.2 117.24 45.2" height="120.30612645161291" data-palette-color="url(#f9e56389-7403-45e8-8cf0-64333d1b1a2d)"><path d="M25.2-20.35L25.2-20.35Q30.1-20.35 30.1-18.5L30.1-18.5Q30.1-18.1 29.8-17.6L29.8-17.6Q28.6-15.75 25.45-15.75L25.45-15.75Q23.4-15.75 21.25-16.48 19.1-17.2 18-18L18-18Q13.35-16.65 9.73-13.85 6.1-11.05 4.3-7.5L4.3-7.5Q3.35-5.6 3.35-3.8L3.35-3.8Q3.35-1 5.68 0.75 8 2.5 12.5 2.5L12.5 2.5Q13.75 2.5 15.1 2.35L15.1 2.35Q23.05 1.5 27.75-2.75L27.75-2.75Q31.7-6.25 31.7-10.1L31.7-10.1Q31.7-13.15 28.75-13.15L28.75-13.15Q25.2-13.15 20.6-9.35L20.6-9.35Q19.45-8.4 18.65-6.95 17.85-5.5 17.85-4.1 17.85-2.7 19.25-2.35L19.25-2.35Q19.75-2.15 19.75-1.85L19.75-1.85Q19.75-1.35 18.75-1.45L18.75-1.45Q16.35-1.5 16.35-4.6 16.35-7.7 19.5-10.4L19.5-10.4Q23.8-14.1 28.6-14.1L28.6-14.1Q32.2-14.1 33.15-11.85L33.15-11.85Q33.55-10.8 33.55-9.75L33.55-9.75Q33.55-5.1 28.4-1L28.4-1Q22.25 4 12.8 4L12.8 4Q6.95 4 3.55 1.83 0.15-0.35 0.15-3.85L0.15-3.85Q0.15-5.9 1.45-7.95L1.45-7.95Q6.05-15.25 17.15-18.8L17.15-18.8Q15.5-20.7 15.5-22.85 15.5-25 16.55-26.45L16.55-26.45Q18.6-29.25 22.7-31.05L22.7-31.05Q27.6-33.2 32.5-33.2L32.5-33.2Q35.35-33.2 37.08-32.27 38.8-31.35 38.8-29.43 38.8-27.5 37.38-26.18 35.95-24.85 34.4-24.85 32.85-24.85 32.85-25.6L32.85-25.6Q32.85-26.05 33.5-26.05L33.5-26.05 34.5-25.9Q35.5-25.9 36.33-26.98 37.15-28.05 37.15-29.2L37.15-29.2Q37.15-30.9 35.2-31.7L35.2-31.7Q33.95-32.2 32.85-32.2 31.75-32.2 31.3-32.15L31.3-32.15Q27-31.9 22.9-29.15L22.9-29.15Q18.1-26 18.1-22.05L18.1-22.05Q18.1-20.6 19.1-19.35L19.1-19.35Q22.3-20.35 25.2-20.35ZM19.95-18.55L19.95-18.55Q22.1-16.85 24.9-16.85 27.7-16.85 27.7-18.4L27.7-18.4Q27.7-19.1 25.2-19.1 22.7-19.1 19.95-18.55ZM38.35 0.65L38.35 0.65Q37.8 0.65 37.35 0.5L37.35 0.5Q34.15-0.4 34.15-3.1L34.15-3.1Q34.15-6.6 38.55-11.2 42.95-15.8 46.45-15.8L46.45-15.8Q47.6-15.8 48.32-15.18 49.05-14.55 49.05-13.48 49.05-12.4 48.4-11.23 47.75-10.05 46.45-10.05 45.15-10.05 45.15-10.85L45.15-10.85Q45.15-11.4 45.82-12.53 46.5-13.65 46.5-13.73 46.5-13.8 46.35-13.8L46.35-13.8Q44.95-13.65 42.52-11.8 40.1-9.95 39.2-8.7L39.2-8.7 37.25-5.85Q36.75-5.05 36.52-3.95 36.3-2.85 36.3-2.3 36.3-1.75 36.92-1.05 37.55-0.35 38.7-0.35L38.7-0.35Q41.2-0.35 44.9-3.28 48.6-6.2 50.6-8.85L50.6-8.85Q50.85-9.15 51.2-9.15 51.55-9.15 51.55-8.95 51.55-8.75 51.3-8.45L51.3-8.45Q48.55-4.8 44.72-2.08 40.9 0.65 38.35 0.65ZM65.3-14.95L65.3-14.95 66-15.1Q66.55-15.1 67.05-14.65 67.55-14.2 67.55-13.95 67.55-13.7 64.45-9.13 61.35-4.55 61.35-2.75L61.35-2.75Q61.35-2.6 61.4-2.45L61.4-2.45Q61.65-1.3 62.5-1.3L62.5-1.3Q65.1-1.3 72-9.9L72-9.9Q72.15-10.1 72.35-10.1 72.55-10.1 72.55-9.73 72.55-9.35 72.1-8.75L72.1-8.75Q65.7-0.2 62.35-0.2L62.35-0.2Q61.9-0.2 61.5-0.35L61.5-0.35Q59.3-1.2 59.3-3.65L59.3-3.65Q59.3-4.5 59.5-5.35L59.5-5.35 56.4-2.35Q53.45 0.25 52.12 0.25 50.8 0.25 49.6-0.6L49.6-0.6Q48.25-1.6 48.25-3.25L48.25-3.25Q48.25-6.9 53.35-11.98 58.45-17.05 62.7-17.05L62.7-17.05Q64.35-17.05 64.9-15.9L64.9-15.9Q65.05-15.5 65.15-15.23 65.25-14.95 65.3-14.95ZM50.35-2.65L50.35-2.65Q50.35-0.85 51.6-0.85L51.6-0.85Q54.5-0.85 59.5-7.2L59.5-7.2 64.8-14.5Q64.4-15.2 63.5-15.2L63.5-15.2Q60.45-15.2 55.4-10.48 50.35-5.75 50.35-2.65ZM79.49 0.25L79.49 0.25Q75.74 0.25 75.74-3.9L75.74-3.9Q75.74-6 76.84-8.5 77.94-11 79.24-12.7L79.24-12.7Q78.99-12.65 78.59-12.65L78.59-12.65Q77.39-12.65 76.59-14.35L76.59-14.35 72.89-9.55Q69.79-5.7 69.29-5.7L69.29-5.7Q69.04-5.7 69.04-5.9L69.04-5.9Q69.04-6.4 69.89-7.35L69.89-7.35Q74.24-12.4 76.04-15.9L76.04-15.9Q77.19-20.25 78.94-20.25L78.94-20.25Q80.09-20.25 80.09-19.25 80.09-18.25 78.84-16.7L78.84-16.7 77.64-15.1Q77.64-14.05 79.19-14.05L79.19-14.05Q80.09-14.05 81.19-14.7L81.19-14.7 82.49-15.5Q82.59-15.55 82.99-15.55 83.39-15.55 83.84-15.05 84.29-14.55 84.14-14.15L84.14-14.15 80.69-9.8Q77.49-5.7 77.49-3.33 77.49-0.95 79.69-0.95L79.69-0.95Q81.99-0.95 85.34-3.4L85.34-3.4Q87.34-4.85 88.99-6.65L88.99-6.65Q90.54-8.45 90.69-8.45L90.69-8.45Q91.04-8.45 91.04-8.08 91.04-7.7 90.59-7.2L90.59-7.2 88.99-5.4Q87.64-4 85.99-2.7L85.99-2.7Q82.04 0.25 79.49 0.25ZM102.04-16.1L102.04-16.1 109.24-16.2Q109.39-16.1 109.39-16.05L109.39-16.05Q109.39-15.6 103.17-14.8 96.94-14 96.44-13.85L96.44-13.85Q95.49-13 92.94-8.78 90.39-4.55 90.39-2.6L90.39-2.6Q90.39-0.75 92.94-0.75L92.94-0.75Q94.14-0.75 96.09-1.5 98.04-2.25 99.09-2.9L99.09-2.9Q101.89-4.65 105.09-8.05L105.09-8.05Q105.79-8.75 106.04-8.75L106.04-8.75Q106.19-8.75 106.19-8.45 106.19-8.15 105.44-7.25L105.44-7.25Q102.84-4.05 99.59-2.1L99.59-2.1Q95.69 0.3 92.14 0.3L92.14 0.3Q90.59 0.3 89.62-0.38 88.64-1.05 88.64-3.1 88.64-5.15 90.44-8.72 92.24-12.3 93.19-14.05L93.19-14.05Q92.49-13.9 91.99-13.9L91.99-13.9Q90.54-13.9 90.54-15.05L90.54-15.05Q90.54-15.9 91.74-16.25L91.74-16.25Q91.89-16.25 92.19-16.3L92.19-16.3 95.09-16.3Q95.99-17.45 97.14-18.95L97.14-18.95Q98.54-20.75 99.04-20.75 99.54-20.75 100.29-20.35 101.04-19.95 101.04-19.4 101.04-18.85 98.64-16.15L98.64-16.15Q99.94-16.1 102.04-16.1Z" opacity="1" transform="matrix(1,0,0,1,0,0)" fill="white" class="undefined-text-0" id="SvgjsPath1048" stroke-width="7" stroke="black" stroke-linejoin="round"></path></svg></g></svg></g></svg></g></svg></g></svg></g></svg></g></svg></g></mask></svg></g><defs><mask></mask></defs></svg></g></mask><linearGradient x1="0" x2="1" y1="0.578" y2="0.595" id="f9e56389-7403-45e8-8cf0-64333d1b1a2d"><stop stop-color="#6ee2f5" offset="0"></stop><stop stop-color="#6454f0" offset="1"></stop></linearGradient><mask id="1e874b73-d94a-4f05-92e3-98644309ac23"><g id="SvgjsG1073"><svg viewBox="0 0 395.52 247.2" height="247.2" width="395.52"><g><svg></svg></g><g><svg viewBox="0 0 395.52 247.2" height="247.2" width="395.52"><g transform="matrix(1,0,0,1,39.55199999999999,63.44693677419354)"><svg viewBox="0 0 316.416 120.30612645161291" height="120.30612645161291" width="316.416"><g><svg viewBox="0 0 316.416 120.30612645161291" height="120.30612645161291" width="316.416"><g><svg viewBox="0 0 316.416 120.30612645161291" height="120.30612645161291" width="316.416"><g><svg viewBox="0 0 316.416 120.30612645161291" height="120.30612645161291" width="316.416"><g id="SvgjsG1072"><svg viewBox="0 0 316.416 120.30612645161291" height="120.30612645161291" width="316.416" id="SvgjsSvg1071"><g><svg viewBox="0 0 316.416 120.30612645161291" height="120.30612645161291" width="316.416"><g transform="matrix(1,0,0,1,0,0)"><svg width="316.416" viewBox="-3.85 -37.2 117.24 45.2" height="120.30612645161291" data-palette-color="url(#f9e56389-7403-45e8-8cf0-64333d1b1a2d)"></svg></g></svg></g></svg></g></svg></g></svg></g></svg></g></svg></g><g mask="url(&quot;#10a413b7-33ca-45af-ade6-5166e10550b0&quot;)"><g transform="matrix(2.7244445020956034, 0, 0, 2.7244445020956034, 86.05696265187194, 1)"><svg xmlns="http://www.w3.org/2000/svg" xmlnsXlink="http://www.w3.org/1999/xlink" version="1.1" x="0" y="0" viewBox="9.000121550667213 5.000001904463208 82.0005966443491 89.9999980955368" enable-background="new 0 0 100 100" xmlSpace="preserve" height="89.9999980955368" width="82.0005966443491" class="icon-none" data-fill-palette-color="accent" id="SvgjsSvg1070"><g fill="white"><path d="M27.995 18.967c1.727-0.205 2.644-2.128 2.866-4.203l0.466-4.356c0.284-2.657-1.643-5.062-4.283-5.347l-0.288-0.033c-2.642-0.286-5.036 1.652-5.32 4.308l-0.474 4.39C25.773 14.801 24.567 19.382 27.995 18.967z" fill="white"></path><path d="M57.004 88.787c-1.703 0-3.09 1.391-3.09 3.104 0 1.719 1.387 3.109 3.09 3.109 1.704 0 3.086-1.391 3.086-3.109C60.09 90.178 58.708 88.787 57.004 88.787z" fill="white"></path><rect x="56.858" y="46.775" width="22.558" height="5.937" fill="white"></rect><path d="M80.666 88.787c-1.709 0-3.091 1.391-3.091 3.104 0 1.719 1.382 3.109 3.091 3.109 1.703 0 3.087-1.391 3.087-3.109C83.753 90.178 82.369 88.787 80.666 88.787z" fill="white"></path><path d="M84.034 73.904l6.85-17.235c0.337-0.855-0.081-1.824-0.929-2.16-0.203-0.082-0.388-0.125-0.593-0.125h-0.018-9.049H55.339h-3.355l-1.454-9.789c-0.081-0.847-0.79-1.509-1.651-1.509H45.55l-3.492-1.418L31.521 38.61l-3.653-17.886c0.142 2.39-3.557 1.209-5.716-1-3.497-0.614-4.858 2.852-5.021 4.976-0.026 8.746-0.28 17.653-0.372 26.352l7.499 0.08-7.511 1.186-0.002 0.334L9.743 85.402c-1.682 5.25-0.455 6.912 3.146 9.35l9.986-30.665-2.911-9.146L34.55 89.439c1.836 5.203 3.814 5.771 8.146 5.508L30.835 54.146l0.459-10.408c3.568 0.524 6.814 0.966 8.764 1.228l1.685 2.357 3.81 1.115 0.969-2.01h0.927l1.449 9.794c0.008 0.058 0.014 0.109 0.022 0.162l4.34 29.245c0.119 0.833 0.828 1.431 1.644 1.431h27.57c0.918 0 1.661-0.748 1.661-1.673 0-0.922-0.743-1.67-1.661-1.67H56.333l-1.277-8.613h27.389C83.197 75.104 83.83 74.6 84.034 73.904zM79.416 71.758V59.396H56.858v12.361h-1.955c-0.119 0-0.232 0.014-0.341 0.037L52.48 57.726h1.419 1.439 24.957 5.285 1.317l-5.575 14.032H79.416z" fill="white"></path></g></svg></g></g><mask id="SvgjsMask1069"><g transform="matrix(1,0,0,1,39.55199999999999,63.44693677419354)"><svg viewBox="0 0 316.416 120.30612645161291" height="120.30612645161291" width="316.416"><g><svg viewBox="0 0 316.416 120.30612645161291" height="120.30612645161291" width="316.416"><g><svg viewBox="0 0 316.416 120.30612645161291" height="120.30612645161291" width="316.416"><g><svg viewBox="0 0 316.416 120.30612645161291" height="120.30612645161291" width="316.416"><g id="SvgjsG1068"><svg viewBox="0 0 316.416 120.30612645161291" height="120.30612645161291" width="316.416" id="SvgjsSvg1067"><g><svg viewBox="0 0 316.416 120.30612645161291" height="120.30612645161291" width="316.416"><g transform="matrix(1,0,0,1,0,0)"><svg width="316.416" viewBox="-3.85 -37.2 117.24 45.2" height="120.30612645161291" data-palette-color="url(#f9e56389-7403-45e8-8cf0-64333d1b1a2d)"></svg></g></svg></g></svg></g></svg></g></svg></g></svg></g></svg></g></mask></svg></g><defs><mask></mask></defs><mask><g id="SvgjsG1065"><svg viewBox="0 0 395.52 247.2" height="247.2" width="395.52"><g><svg></svg></g><g><svg viewBox="0 0 395.52 247.2" height="247.2" width="395.52"><g transform="matrix(1,0,0,1,39.55199999999999,63.44693677419354)"><svg viewBox="0 0 316.416 120.30612645161291" height="120.30612645161291" width="316.416"><g><svg viewBox="0 0 316.416 120.30612645161291" height="120.30612645161291" width="316.416"><g><svg viewBox="0 0 316.416 120.30612645161291" height="120.30612645161291" width="316.416"><g><svg viewBox="0 0 316.416 120.30612645161291" height="120.30612645161291" width="316.416"><g id="SvgjsG1064"><svg viewBox="0 0 316.416 120.30612645161291" height="120.30612645161291" width="316.416" id="SvgjsSvg1063"><g><svg viewBox="0 0 316.416 120.30612645161291" height="120.30612645161291" width="316.416"><g transform="matrix(1,0,0,1,0,0)"><svg width="316.416" viewBox="-3.85 -37.2 117.24 45.2" height="120.30612645161291" data-palette-color="url(#f9e56389-7403-45e8-8cf0-64333d1b1a2d)"></svg></g></svg></g></svg></g></svg></g></svg></g></svg></g></svg></g><g mask="url(&quot;#10a413b7-33ca-45af-ade6-5166e10550b0&quot;)"><g transform="matrix(2.7244445020956034, 0, 0, 2.7244445020956034, 86.05696265187194, 1)"><svg xmlns="http://www.w3.org/2000/svg" xmlnsXlink="http://www.w3.org/1999/xlink" version="1.1" x="0" y="0" viewBox="9.000121550667213 5.000001904463208 82.0005966443491 89.9999980955368" enable-background="new 0 0 100 100" xml:space="preserve" height="89.9999980955368" width="82.0005966443491" class="icon-none" data-fill-palette-color="accent" id="SvgjsSvg1061"></svg></g></g><mask id="SvgjsMask1060"><g transform="matrix(1,0,0,1,39.55199999999999,63.44693677419354)"><svg viewBox="0 0 316.416 120.30612645161291" height="120.30612645161291" width="316.416"><g><svg viewBox="0 0 316.416 120.30612645161291" height="120.30612645161291" width="316.416"><g><svg viewBox="0 0 316.416 120.30612645161291" height="120.30612645161291" width="316.416"><g><svg viewBox="0 0 316.416 120.30612645161291" height="120.30612645161291" width="316.416"><g id="SvgjsG1059"><svg viewBox="0 0 316.416 120.30612645161291" height="120.30612645161291" width="316.416" id="SvgjsSvg1058"><g><svg viewBox="0 0 316.416 120.30612645161291" height="120.30612645161291" width="316.416"><g transform="matrix(1,0,0,1,0,0)"><svg width="316.416" viewBox="-3.85 -37.2 117.24 45.2" height="120.30612645161291" data-palette-color="url(#f9e56389-7403-45e8-8cf0-64333d1b1a2d)"></svg></g></svg></g></svg></g></svg></g></svg></g></svg></g></svg></g></mask></svg></g><defs><mask></mask></defs></svg></g></mask></svg></g></mask><linearGradient x1="0" x2="1" y1="0.548" y2="0.55" id="3b425ca0-e3b8-447d-b725-5d548ac6e648"><stop stop-color="#ff6cab" offset="0"></stop><stop stop-color="#7366ff" offset="1"></stop></linearGradient></svg><rect width="395.52" height="247.2" fill="none" stroke="none" visibility="hidden"></rect></g></svg></g></svg>